<svg preserveAspectRatio="none" width="100%" height="100%" overflow="visible" style="display: block;" viewBox="0 0 379.784 351.584" fill="none" xmlns="http://www.w3.org/2000/svg">
<g id="_442651776">
<path id="_442653336" d="M35.7942 42.7485H343.988C353.839 42.7485 362.79 46.7735 369.274 53.2572C375.758 59.7413 379.782 68.6918 379.782 78.5424V315.79C379.782 325.641 375.758 334.592 369.274 341.076C362.79 347.559 353.839 351.584 343.988 351.584H35.7942C25.9434 351.584 16.9927 347.559 10.5088 341.076C4.02497 334.592 0 325.641 0 315.79V78.5424C0 68.6917 4.02497 59.7413 10.5088 53.2572C16.9928 46.7735 25.9435 42.7485 35.7942 42.7485ZM343.988 57.3982H35.7942C29.9871 57.3982 24.702 59.7794 20.8663 63.6149C17.0308 67.4506 14.6496 72.7354 14.6496 78.5425V315.79C14.6496 321.598 17.0308 326.882 20.8663 330.718C24.702 334.554 29.9871 336.935 35.7942 336.935H343.988C349.795 336.935 355.08 334.554 358.916 330.718C362.752 326.882 365.133 321.598 365.133 315.79V78.5425C365.133 72.7354 362.752 67.4506 358.916 63.6149C355.08 59.7794 349.795 57.3982 343.988 57.3982Z" fill="var(--fill-0, #6B21A8)"/>
<path id="_442653984" d="M7.32484 118.728C3.27961 118.728 0 122.007 0 126.052C0 130.098 3.27961 133.377 7.32484 133.377H372.459C376.504 133.377 379.784 130.098 379.784 126.052C379.784 122.007 376.504 118.728 372.459 118.728H7.32484Z" fill="var(--fill-0, #6B21A8)"/>
<path id="_442653720" d="M72.8654 63.3674C79.6838 63.3674 85.8578 66.132 90.3272 70.6012C94.7961 75.0706 97.561 81.2445 97.561 88.063C97.561 94.8815 94.7961 101.056 90.3272 105.525C85.8578 109.994 79.6838 112.758 72.8654 112.758C66.0469 112.758 59.8727 109.994 55.4038 105.525C50.9346 101.055 48.17 94.8812 48.17 88.063C48.17 81.2445 50.9349 75.0706 55.4038 70.6012C59.8726 66.1323 66.0469 63.3674 72.8654 63.3674ZM79.9696 80.9588C78.1523 79.1415 75.6402 78.0171 72.8654 78.0171C70.0905 78.0171 67.5787 79.1415 65.7614 80.9588C63.9441 82.7761 62.8197 85.2881 62.8197 88.063C62.8197 90.8379 63.9441 93.3497 65.7614 95.167C67.5787 96.9843 70.0905 98.1087 72.8654 98.1087C75.6402 98.1087 78.1523 96.9843 79.9696 95.167C81.7869 93.3497 82.9113 90.8379 82.9113 88.063C82.9113 85.2881 81.7869 82.776 79.9696 80.9588Z" fill="var(--fill-0, #6B21A8)"/>
<path id="_442653960" d="M306.919 63.3674C313.738 63.3674 319.912 66.1323 324.381 70.6012C328.85 75.0706 331.615 81.2445 331.615 88.063C331.615 94.8812 328.85 101.055 324.381 105.525C319.912 109.993 313.738 112.758 306.919 112.758C300.101 112.758 293.927 109.994 289.457 105.525C284.989 101.056 282.224 94.8815 282.224 88.063C282.224 81.2445 284.988 75.0706 289.457 70.6012C293.927 66.132 300.101 63.3674 306.919 63.3674ZM314.023 80.9588C312.206 79.1415 309.694 78.0171 306.919 78.0171C304.144 78.0171 301.632 79.1415 299.815 80.9588C297.998 82.7761 296.873 85.2881 296.873 88.063C296.873 90.8379 297.998 93.3497 299.815 95.167C301.632 96.9843 304.144 98.1087 306.919 98.1087C309.694 98.1087 312.206 96.9843 314.023 95.167C315.841 93.3497 316.965 90.8379 316.965 88.063C316.965 85.2881 315.841 82.776 314.023 80.9588Z" fill="var(--fill-0, #6B21A8)"/>
<path id="_442653888" d="M80.1905 7.32484C80.1905 3.27961 76.9109 0 72.8656 0C68.8204 0 65.5408 3.27961 65.5408 7.32484V70.7232C65.5408 74.7684 68.8204 78.048 72.8656 78.048C76.9109 78.048 80.1905 74.7684 80.1905 70.7232V7.32484Z" fill="var(--fill-0, #6B21A8)"/>
<path id="_442653288" d="M314.242 7.32484C314.242 3.27961 310.962 0 306.917 0C302.872 0 299.592 3.27961 299.592 7.32484V70.7232C299.592 74.7684 302.872 78.048 306.917 78.048C310.962 78.048 314.242 74.7684 314.242 70.7232V7.32484Z" fill="var(--fill-0, #6B21A8)"/>
<path id="_442653216" d="M169.678 156.654C165.633 156.654 162.353 159.934 162.353 163.979C162.353 168.024 165.633 171.304 169.678 171.304H195.87C199.915 171.304 203.195 168.024 203.195 163.979C203.195 159.934 199.915 156.654 195.87 156.654H169.678Z" fill="var(--fill-0, #6B21A8)"/>
<path id="_442652880" d="M239.713 156.654C235.668 156.654 232.388 159.934 232.388 163.979C232.388 168.024 235.668 171.304 239.713 171.304H265.905C269.95 171.304 273.23 168.024 273.23 163.979C273.23 159.934 269.95 156.654 265.905 156.654H239.713Z" fill="var(--fill-0, #6B21A8)"/>
<path id="_442653168" d="M306.143 156.654C302.098 156.654 298.818 159.934 298.818 163.979C298.818 168.024 302.098 171.304 306.143 171.304H332.335C336.381 171.304 339.66 168.024 339.66 163.979C339.66 159.934 336.381 156.654 332.335 156.654H306.143Z" fill="var(--fill-0, #6B21A8)"/>
<path id="_442653120" d="M47.4487 204.104C43.4034 204.104 40.1238 207.384 40.1238 211.429C40.1238 215.474 43.4034 218.754 47.4487 218.754H73.6407C77.686 218.754 80.9656 215.474 80.9656 211.429C80.9656 207.384 77.686 204.104 73.6407 204.104H47.4487Z" fill="var(--fill-0, #6B21A8)"/>
<path id="_442652784" d="M108.563 204.104C104.518 204.104 101.238 207.384 101.238 211.429C101.238 215.474 104.518 218.754 108.563 218.754H134.756C138.801 218.754 142.08 215.474 142.08 211.429C142.08 207.384 138.801 204.104 134.756 204.104H108.563Z" fill="var(--fill-0, #6B21A8)"/>
<path id="_442653072" d="M169.678 204.104C165.633 204.104 162.353 207.384 162.353 211.429C162.353 215.474 165.633 218.754 169.678 218.754H195.87C199.915 218.754 203.195 215.474 203.195 211.429C203.195 207.384 199.915 204.104 195.87 204.104H169.678Z" fill="var(--fill-0, #6B21A8)"/>
<path id="_442652736" d="M239.713 204.104C235.668 204.104 232.388 207.384 232.388 211.429C232.388 215.474 235.668 218.754 239.713 218.754H265.905C269.95 218.754 273.23 215.474 273.23 211.429C273.23 207.384 269.95 204.104 265.905 204.104H239.713Z" fill="var(--fill-0, #6B21A8)"/>
<path id="_442652208" d="M306.143 204.104C302.098 204.104 298.818 207.384 298.818 211.429C298.818 215.474 302.098 218.754 306.143 218.754H332.335C336.381 218.754 339.66 215.474 339.66 211.429C339.66 207.384 336.381 204.104 332.335 204.104H306.143Z" fill="var(--fill-0, #6B21A8)"/>
<path id="_442651992" d="M47.4487 251.554C43.4034 251.554 40.1238 254.834 40.1238 258.879C40.1238 262.924 43.4034 266.204 47.4487 266.204H73.6407C77.686 266.204 80.9656 262.924 80.9656 258.879C80.9656 254.834 77.686 251.554 73.6407 251.554H47.4487Z" fill="var(--fill-0, #6B21A8)"/>
<path id="_442651872" d="M108.563 251.554C104.518 251.554 101.238 254.834 101.238 258.879C101.238 262.924 104.518 266.204 108.563 266.204H134.756C138.801 266.204 142.08 262.924 142.08 258.879C142.08 254.834 138.801 251.554 134.756 251.554H108.563Z" fill="var(--fill-0, #6B21A8)"/>
<path id="_442652088" d="M169.678 251.554C165.633 251.554 162.353 254.834 162.353 258.879C162.353 262.924 165.633 266.204 169.678 266.204H195.87C199.915 266.204 203.195 262.924 203.195 258.879C203.195 254.834 199.915 251.554 195.87 251.554H169.678Z" fill="var(--fill-0, #6B21A8)"/>
<path id="_442651968" d="M239.713 251.554C235.668 251.554 232.388 254.834 232.388 258.879C232.388 262.924 235.668 266.204 239.713 266.204H265.905C269.95 266.204 273.23 262.924 273.23 258.879C273.23 254.834 269.95 251.554 265.905 251.554H239.713Z" fill="var(--fill-0, #6B21A8)"/>
<path id="_442652424" d="M306.143 251.554C302.098 251.554 298.818 254.834 298.818 258.879C298.818 262.924 302.098 266.204 306.143 266.204H332.335C336.381 266.204 339.66 262.924 339.66 258.879C339.66 254.834 336.381 251.554 332.335 251.554H306.143Z" fill="var(--fill-0, #6B21A8)"/>
<path id="_442652064" d="M47.4487 299.004C43.4034 299.004 40.1238 302.284 40.1238 306.329C40.1238 310.375 43.4034 313.654 47.4487 313.654H73.6407C77.686 313.654 80.9656 310.375 80.9656 306.329C80.9656 302.284 77.686 299.004 73.6407 299.004H47.4487Z" fill="var(--fill-0, #6B21A8)"/>
<path id="_442652256" d="M108.563 299.004C104.518 299.004 101.238 302.284 101.238 306.329C101.238 310.375 104.518 313.654 108.563 313.654H134.756C138.801 313.654 142.08 310.375 142.08 306.329C142.08 302.284 138.801 299.004 134.756 299.004H108.563Z" fill="var(--fill-0, #6B21A8)"/>
<path id="_442652520" d="M169.678 299.004C165.633 299.004 162.353 302.284 162.353 306.329C162.353 310.375 165.633 313.654 169.678 313.654H195.87C199.915 313.654 203.195 310.375 203.195 306.329C203.195 302.284 199.915 299.004 195.87 299.004H169.678Z" fill="var(--fill-0, #6B21A8)"/>
</g>
</svg>
